<svg viewBox="-106 0 512 512" xmlns="http://www.w3.org/2000/svg"><path d="m190 469c5.519531 0 10-4.480469 10-10s-4.480469-10-10-10-10 4.480469-10 10 4.480469 10 10 10zm0 0"/><path d="m270 512c16.542969 0 30-13.457031 30-30v-452c0-16.542969-13.457031-30-30-30h-240c-16.542969 0-30 13.457031-30 30v452c0 16.542969 13.457031 30 30 30zm-250-482c0-5.515625 4.484375-10 10-10h240c5.515625 0 10 4.484375 10 10v36h-260zm0 56h260v320h-260zm0 396v-56h260v56c0 5.515625-4.484375 10-10 10h-240c-5.515625 0-10-4.484375-10-10zm0 0"/><path d="m110 469h40c5.523438 0 10-4.476562 10-10s-4.476562-10-10-10h-40c-5.523438 0-10 4.476562-10 10s4.476562 10 10 10zm0 0"/><path d="m130 106h-60c-5.523438 0-10 4.476562-10 10v60c0 5.523438 4.476562 10 10 10h60c5.523438 0 10-4.476562 10-10v-60c0-5.523438-4.476562-10-10-10zm-10 60h-40v-40h40zm0 0"/><path d="m130 206h-60c-5.523438 0-10 4.476562-10 10v60c0 5.523438 4.476562 10 10 10h60c5.523438 0 10-4.476562 10-10v-60c0-5.523438-4.476562-10-10-10zm-10 60h-40v-40h40zm0 0"/><path d="m130 306h-60c-5.523438 0-10 4.476562-10 10v60c0 5.523438 4.476562 10 10 10h60c5.523438 0 10-4.476562 10-10v-60c0-5.523438-4.476562-10-10-10zm-10 60h-40v-40h40zm0 0"/><path d="m230 116h-60c-5.523438 0-10 4.476562-10 10s4.476562 10 10 10h60c5.523438 0 10-4.476562 10-10s-4.476562-10-10-10zm0 0"/><path d="m170 176h40c5.523438 0 10-4.476562 10-10s-4.476562-10-10-10h-40c-5.523438 0-10 4.476562-10 10s4.476562 10 10 10zm0 0"/><path d="m170 276h40c5.523438 0 10-4.476562 10-10s-4.476562-10-10-10h-40c-5.523438 0-10 4.476562-10 10s4.476562 10 10 10zm0 0"/><path d="m210 356h-40c-5.523438 0-10 4.476562-10 10s4.476562 10 10 10h40c5.523438 0 10-4.476562 10-10s-4.476562-10-10-10zm0 0"/><path d="m230 216h-60c-5.523438 0-10 4.476562-10 10s4.476562 10 10 10h60c5.523438 0 10-4.476562 10-10s-4.476562-10-10-10zm0 0"/><path d="m230 316h-60c-5.523438 0-10 4.476562-10 10s4.476562 10 10 10h60c5.523438 0 10-4.476562 10-10s-4.476562-10-10-10zm0 0"/></svg>