<svg viewBox="0 -26 512.00075 512" xmlns="http://www.w3.org/2000/svg"><path d="m196 240c5.519531 0 10-4.480469 10-10 0-5.488281-4.453125-10-10-10-5.519531 0-10 4.480469-10 10 0 5.550781 4.496094 10 10 10zm0 0"/><path d="m256 420c61.785156 0 110-50.117188 110-110 0-60.652344-49.347656-110-110-110-8.6875 0-17.394531.992188-26.226562 3.144531-5.367188 1.308594-8.65625 6.71875-7.347657 12.082031 1.308594 5.367188 6.71875 8.660157 12.082031 7.347657 6.902344-1.679688 14.53125-2.574219 21.492188-2.574219 49.625 0 90 40.375 90 90 0 50.960938-41.390625 90-90 90-49.625 0-90-40.375-90-90 0-15.253906 3.867188-30.820312 12.105469-45.117188 2.753906-4.785156 1.113281-10.902343-3.671875-13.65625-4.789063-2.761718-10.902344-1.113281-13.660156 3.671876-4.707032 8.171874-8.515626 16.941406-11.296876 27.542968-.347656 1.867188-3.476562 12.277344-3.476562 27.558594 0 60.65625 49.347656 110 110 110zm-108.273438-129.523438c.007813-.03125.015626-.058593.019532-.089843-.003906.023437-.011719.0625-.019532.089843zm0 0"/><path d="m236.875 357.683594c4.117188 3.203125 8.371094 6.519531 12.878906 10.125 1.824219 1.460937 4.035156 2.191406 6.246094 2.191406s4.421875-.730469 6.246094-2.191406c4.5-3.597656 8.746094-6.90625 12.855468-10.105469 7.234376-5.640625 13.480469-10.507813 18.964844-15.28125 11.394532-9.917969 21.933594-21.3125 21.933594-37.371094 0-19.65625-15.375-35.050781-35-35.050781-11.074219 0-19.285156 4.804688-25 10.816406-5.714844-6.011718-13.921875-10.816406-25-10.816406-19.625 0-35 15.394531-35 35.050781 0 20.785157 17.144531 34.144531 40.875 52.632813zm-5.875-67.683594c10.996094 0 15.023438 11.628906 15.421875 12.875 1.269531 4.230469 5.164063 7.125 9.578125 7.125 4.417969 0 8.308594-2.894531 9.578125-7.125.039063-.128906 3.992187-12.875 15.421875-12.875 9.847656 0 15 7.570312 15 15.050781 0 6.597657-4.226562 12.847657-15.066406 22.289063-5.070313 4.414062-11.121094 9.128906-18.125 14.585937-2.222656 1.730469-4.480469 3.492188-6.808594 5.316407-2.332031-1.832032-4.605469-3.601563-6.832031-5.335938-21.792969-16.980469-33.167969-26.332031-33.167969-36.855469 0-7.480469 5.152344-15.050781 15-15.050781zm0 0"/><path d="m17.140625 256.902344c26.898437-27.421875 123.621094-116.902344 238.859375-116.902344 115.234375 0 211.960938 89.480469 238.859375 116.902344 3.855469 3.929687 10.1875 4.015625 14.144531.136718 3.941406-3.867187 4.003906-10.199218.136719-14.140624-28.28125-28.832032-130.113281-122.898438-253.140625-122.898438s-224.859375 94.066406-253.140625 122.898438c-3.863281 3.941406-3.804687 10.273437.140625 14.140624 3.9375 3.867188 10.269531 3.804688 14.140625-.136718zm0 0"/><path d="m77.148438 387.890625c51.617187 40.207031 113.949218 72.109375 178.851562 72.109375 64.898438 0 127.230469-31.902344 178.851562-72.109375 45.3125-35.300781 73.730469-70.128906 74.917969-71.59375 2.976563-3.671875 2.976563-8.921875 0-12.59375-1.1875-1.464844-29.601562-36.292969-74.917969-71.589844-51.617187-40.207031-113.949218-72.113281-178.851562-72.113281s-127.238281 31.90625-178.851562 72.113281c-45.3125 35.296875-73.730469 70.125-74.917969 71.589844-2.972657 3.671875-2.972657 8.921875 0 12.59375 1.1875 1.464844 29.605469 36.292969 74.917969 71.59375zm12.644531-140.273437c39.675781-30.847657 100.71875-67.617188 166.207031-67.617188 65.492188 0 126.535156 36.769531 166.210938 67.617188 32.523437 25.285156 56.441406 50.871093 66.617187 62.382812-10.175781 11.511719-34.09375 37.097656-66.617187 62.382812-39.675782 30.847657-100.71875 67.617188-166.210938 67.617188-65.488281 0-126.53125-36.769531-166.207031-67.617188-32.53125-25.289062-56.449219-50.871093-66.621094-62.382812 10.171875-11.511719 34.09375-37.097656 66.621094-62.382812zm0 0"/><path d="m256 80c5.523438 0 10-4.476562 10-10v-60c0-5.523438-4.476562-10-10-10s-10 4.476562-10 10v60c0 5.523438 4.476562 10 10 10zm0 0"/><path d="m132.339844 105.808594c2.777344 4.808594 8.902344 6.410156 13.660156 3.660156 4.785156-2.757812 6.421875-8.875 3.660156-13.660156l-30-51.957032c-2.761718-4.785156-8.878906-6.421874-13.660156-3.660156-4.78125 2.761719-6.421875 8.875-3.660156 13.660156zm0 0"/><path d="m366 109.46875c4.765625 2.753906 10.890625 1.140625 13.660156-3.660156l30-51.957032c2.761719-4.785156 1.125-10.898437-3.660156-13.660156-4.785156-2.761718-10.898438-1.125-13.660156 3.660156l-30 51.957032c-2.761719 4.785156-1.121094 10.902344 3.660156 13.660156zm0 0"/></svg>