<svg viewBox="-46 0 512 512" xmlns="http://www.w3.org/2000/svg"><path d="m310 60c-5.519531 0-10 4.480469-10 10s4.480469 10 10 10 10-4.480469 10-10-4.480469-10-10-10zm0 0"/><path d="m270 60h-160c-5.523438 0-10 4.476562-10 10s4.476562 10 10 10h160c5.523438 0 10-4.476562 10-10s-4.476562-10-10-10zm0 0"/><path d="m410 432h-30v-76c0-5.523438-4.476562-10-10-10h-70v-30c0-5.523438-4.476562-10-10-10h-70v-43h70c5.523438 0 10-4.476562 10-10v-60c0-5.523438-4.476562-10-10-10h-70v-43h130c16.542969 0 30-13.457031 30-30v-80c0-16.542969-13.457031-30-30-30h-280c-16.542969 0-30 13.457031-30 30v80c0 16.542969 13.457031 30 30 30h130v43h-70c-5.523438 0-10 4.476562-10 10v60c0 5.523438 4.476562 10 10 10h70v43h-70c-5.523438 0-10 4.476562-10 10v30h-70c-5.523438 0-10 4.476562-10 10v76h-30c-5.523438 0-10 4.476562-10 10v60c0 5.523438 4.476562 10 10 10h80c5.523438 0 10-4.476562 10-10v-60c0-5.523438-4.476562-10-10-10h-30v-66h60v10c0 5.523438 4.476562 10 10 10h70v46h-30c-5.523438 0-10 4.476562-10 10v60c0 5.523438 4.476562 10 10 10h80c5.523438 0 10-4.476562 10-10v-60c0-5.523438-4.476562-10-10-10h-30v-46h70c5.523438 0 10-4.476562 10-10v-10h60v66h-30c-5.523438 0-10 4.476562-10 10v60c0 5.523438 4.476562 10 10 10h80c5.523438 0 10-4.476562 10-10v-60c0-5.523438-4.476562-10-10-10zm-330 20v40h-60v-40zm-10-332c-5.515625 0-10-4.484375-10-10v-80c0-5.515625 4.484375-10 10-10h280c5.515625 0 10 4.484375 10 10v80c0 5.515625-4.484375 10-10 10zm70 123v-40h140v40zm100 209v40h-60v-40zm40-86h-140v-40h140zm120 126h-60v-40h60zm0 0"/></svg>