<?xml version="1.0" standalone="no"?><!DOCTYPE svg PUBLIC "-//W3C//DTD SVG 1.1//EN" "http://www.w3.org/Graphics/SVG/1.1/DTD/svg11.dtd"><svg t="1617870575745" class="icon" viewBox="0 0 1024 1024" version="1.1" xmlns="http://www.w3.org/2000/svg" p-id="2227" xmlns:xlink="http://www.w3.org/1999/xlink" width="200" height="200"><defs><style type="text/css"></style></defs><path d="M920.96 505.472l-363.690667-365.653333-24.362666-24.490667a29.525333 29.525333 0 0 0-41.813334 0l-388.053333 390.144A60.714667 60.714667 0 0 0 85.333333 549.034667a61.013333 61.013333 0 0 0 61.098667 59.946666h39.978667V917.333333h651.178666v-308.352h40.832A60.416 60.416 0 0 0 938.666667 548.266667c0-16.128-6.314667-31.36-17.706667-42.837334z m-356.266667 343.68h-105.386666v-193.109333h105.386666v193.109333z m205.098667-308.352v308.352h-144.853333v-215.850667a37.76 37.76 0 0 0-37.632-37.845333h-150.613334a37.76 37.76 0 0 0-37.632 37.845333v215.893334H254.208v-308.394667H163.84l348.245333-349.994667 21.76 21.845334 326.4 328.149333h-90.453333z" p-id="2228"></path></svg>