<svg viewBox="0 -46 512 512" xmlns="http://www.w3.org/2000/svg"><path d="m216 380c5.519531 0 10-4.480469 10-10s-4.480469-10-10-10-10 4.480469-10 10 4.480469 10 10 10zm0 0"/><path d="m502 320h-10v-290c0-16.542969-13.457031-30-30-30h-412c-16.542969 0-30 13.457031-30 30v290h-10c-5.523438 0-10 4.476562-10 10v20c0 38.597656 31.402344 70 70 70h372c38.597656 0 70-31.402344 70-70v-20c0-5.523438-4.476562-10-10-10zm-462-290c0-5.515625 4.484375-10 10-10h412c5.515625 0 10 4.484375 10 10v290h-432zm452 320c0 27.570312-22.429688 50-50 50h-372c-27.570312 0-50-22.429688-50-50v-10h472zm0 0"/><path d="m256 380h40c5.523438 0 10-4.476562 10-10s-4.476562-10-10-10h-40c-5.523438 0-10 4.476562-10 10s4.476562 10 10 10zm0 0"/><path d="m386 110c0-3.789062-2.140625-7.25-5.527344-8.945312l-120-60c-2.816406-1.40625-6.128906-1.40625-8.945312 0l-120 60c-3.386719 1.695312-5.527344 5.15625-5.527344 8.945312s2.140625 7.25 5.527344 8.945312l42.113281 21.054688-42.113281 21.054688c-3.386719 1.695312-5.527344 5.15625-5.527344 8.945312s2.140625 7.25 5.527344 8.945312l42.113281 21.054688-42.113281 21.054688c-3.386719 1.695312-5.527344 5.15625-5.527344 8.945312s2.140625 7.25 5.527344 8.945312l120 60c1.40625.703126 2.941406 1.054688 4.472656 1.054688s3.0625-.351562 4.472656-1.054688l120-60c3.386719-1.695312 5.527344-5.15625 5.527344-8.945312s-2.140625-7.25-5.527344-8.945312l-42.113281-21.054688 42.113281-21.054688c3.386719-1.695312 5.527344-5.15625 5.527344-8.945312s-2.140625-7.25-5.527344-8.945312l-42.113281-21.054688 42.113281-21.054688c3.386719-1.695312 5.527344-5.15625 5.527344-8.945312zm-32.359375 120-97.640625 48.820312-97.640625-48.820312 37.640625-18.820312 55.527344 27.765624c1.40625.703126 2.941406 1.054688 4.472656 1.054688s3.0625-.351562 4.472656-1.054688l55.527344-27.765624zm0-60-97.640625 48.820312-97.640625-48.820312 37.640625-18.820312 55.527344 27.765624c1.40625.703126 2.941406 1.054688 4.472656 1.054688s3.0625-.351562 4.472656-1.054688l55.527344-27.765624zm-97.640625-11.179688-97.640625-48.820312 97.640625-48.820312 97.640625 48.820312zm0 0"/></svg>