<?xml version="1.0" standalone="no"?><!DOCTYPE svg PUBLIC "-//W3C//DTD SVG 1.1//EN" "http://www.w3.org/Graphics/SVG/1.1/DTD/svg11.dtd"><svg t="1617886446588" class="icon" viewBox="0 0 1024 1024" version="1.1" xmlns="http://www.w3.org/2000/svg" p-id="1226" xmlns:xlink="http://www.w3.org/1999/xlink" width="200" height="200"><defs><style type="text/css"></style></defs><path d="M977.089094 44.985558l0.959541 0.959542 0.959541 0.959541c31.890641 32.51152 46.396649 78.005071 44.872672 131.90872-1.354647 48.485062-15.63488 104.138463-41.429611 164.307353-23.254768 54.185867-55.48407 111.306802-95.107486 168.822842 39.623415 57.51604 71.852717 114.580531 95.107486 168.822842 25.79473 60.16889 40.074964 115.822291 41.429611 164.307354 1.523978 54.468085-13.320692 100.356741-45.832213 132.924705-32.567964 32.567964-78.400176 47.35619-132.924705 45.832212-48.485062-1.354647-104.138463-15.63488-164.307353-41.429611-54.185867-23.254768-111.306802-55.48407-168.822842-95.107485-57.51604 39.623415-114.580531 71.852717-168.822842 95.107485-60.16889 25.79473-115.822291 40.074964-164.307353 41.429611-54.524529 1.523978-100.356741-13.320692-132.924705-45.832212-32.567964-32.567964-47.35619-78.400176-45.832213-132.924705 1.354647-48.485062 15.63488-104.138463 41.429611-164.307354 23.254768-54.185867 55.48407-111.306802 95.107485-168.822842-39.623415-57.459597-71.852717-114.524088-95.051042-168.766398C15.797946 283.008268 1.517712 227.354867 0.163066 178.869805c-1.523978-53.960093 12.982031-99.453643 44.872671-131.90872l0.959541-0.959542 0.959542-0.959541C79.46634 13.151361 124.959891-1.354647 178.86354 0.169331c48.485062 1.354647 104.138463 15.63488 164.307353 41.429611 54.242311 23.254768 111.306802 55.48407 168.822842 95.107485 57.51604-39.623415 114.580531-71.852717 168.822842-95.107485C740.985467 15.804211 796.638868 1.523978 845.12393 0.169331c54.016536-1.580421 99.453643 12.925587 131.965164 44.816227zM189.305608 583.118951l-0.846654 1.298203c-28.842685 44.364679-52.605446 87.939147-70.272297 129.25587-42.840701 99.905192-44.872671 173.78988-13.207805 205.454746 31.664866 31.664866 105.549554 29.576452 205.454746-13.207805 41.711829-17.892625 85.681402-41.88116 130.49763-71.118951-45.042002-35.672362-89.801786-75.465109-132.981149-118.644471-43.179363-43.235806-82.972109-87.939147-118.644471-133.037592z m645.489141 0l-2.144857 2.709293c-35.107926 44.138904-74.166906 87.939147-116.499614 130.271855-43.179363 43.179363-87.882703 82.972109-132.981149 118.644472 44.816228 29.237791 88.785801 53.226326 130.49763 71.11895 99.905192 42.840701 173.78988 44.872671 205.454746 13.207805 31.664866-31.664866 29.576452-105.549554-13.207806-205.454746-17.836181-41.655385-41.88116-85.681402-71.11895-130.497629zM512.050178 239.546687l-1.693308 1.298203C461.984695 277.815456 413.556076 320.204608 366.87721 366.883475c-47.186859 47.186859-90.02756 96.236358-127.280344 145.172969 37.252784 48.936611 80.093485 97.929666 127.280344 145.172968 47.186859 47.186859 96.236358 90.02756 145.172968 127.280344 48.936611-37.252784 97.929666-80.093485 145.172969-127.280344 47.186859-47.186859 90.02756-96.179914 127.280344-145.172968-37.252784-48.936611-80.093485-97.929666-127.280344-145.172969-47.243303-47.243303-96.236358-90.084004-145.172969-127.336788z m-0.620879 211.155551c33.583949 0 60.902657 26.754272 61.410649 59.999559V512.62088c0 33.696836-27.488039 60.9591-61.467093 60.9591-33.583949 0-60.902657-26.754272-61.410649-59.999559V511.661338c0-33.696836 27.544482-60.9591 61.467093-60.9591zM105.938394 103.969132l-0.959542 0.959542-0.959541 0.959541c-30.705325 32.172859-28.221806 105.549554 14.167346 204.495205 17.892625 41.711829 41.88116 85.681402 71.118951 130.497629 35.672362-45.042002 75.465109-89.801786 118.644471-132.981148 43.179363-43.179363 87.882703-82.972109 132.981149-118.644472-44.816228-29.237791-88.785801-53.226326-130.49763-71.11895-98.945651-42.389152-172.322346-44.872671-204.495204-14.167347z m607.728365 14.167347c-41.711829 17.892625-85.681402 41.88116-130.49763 71.11895 45.042002 35.672362 89.801786 75.465109 132.981149 118.644472 43.179363 43.179363 82.972109 87.882703 118.644471 132.981148 29.237791-44.816228 53.282769-88.785801 71.11895-130.497629 42.389152-98.945651 44.816228-172.322346 14.167347-204.495205l-0.959541-0.959541-0.959542-0.959542c-32.172859-30.705325-105.549554-28.221806-204.495204 14.167347z" p-id="1227"></path></svg>