<svg viewBox="0 -18 512 512" xmlns="http://www.w3.org/2000/svg"><path d="m176 376c-5.519531 0-10 4.480469-10 10s4.480469 10 10 10 10-4.480469 10-10-4.480469-10-10-10zm0 0"/><path d="m310.53125 399.789062c-16.238281 10.605469-35.09375 16.210938-54.53125 16.210938-16.105469 0-32.113281-3.9375-46.300781-11.382812-4.890625-2.566407-10.9375-.683594-13.503907 4.207031-2.566406 4.890625-.683593 10.933593 4.207032 13.5 17.042968 8.945312 36.269531 13.675781 55.597656 13.675781 23.332031 0 45.96875-6.730469 65.46875-19.46875 4.625-3.019531 5.921875-9.214844 2.902344-13.839844-3.019532-4.625-9.21875-5.921875-13.839844-2.902344zm0 0"/><path d="m393.632812 69.085938c29.625 13.628906 50.824219 40.816406 56.714844 72.726562 1 5.441406 6.222656 9.023438 11.644532 8.023438 5.433593-1.003907 9.023437-6.21875 8.023437-11.648438-7.070313-38.304688-32.5-70.929688-68.027344-87.273438-5.015625-2.308593-10.957031-.109374-13.261719 4.90625-2.308593 5.019532-.113281 10.957032 4.90625 13.265626zm0 0"/><path d="m96.273438 306.785156c-.175782 3.085938-.273438 6.164063-.273438 9.214844 0 88.222656 71.777344 160 160 160s160-71.777344 160-160c0-3.050781-.097656-6.128906-.273438-9.214844 56.445313-24.496094 96.273438-80.820312 96.273438-146.785156 0-88.222656-71.777344-160-160-160-34.652344 0-68.429688 11.320312-96 32.011719-27.570312-20.691407-61.347656-32.011719-96-32.011719-88.222656 0-160 71.777344-160 160 0 65.96875 39.835938 122.292969 96.273438 146.785156zm159.726562 149.214844c-77.195312 0-140-62.804688-140-140 0-.703125.015625-1.414062.027344-2.125 14.230468 4.0625 28.96875 6.125 43.972656 6.125 34.652344 0 68.429688-11.320312 96-32.011719 27.570312 20.691407 61.347656 32.011719 96 32.011719 15.003906 0 29.742188-2.0625 43.972656-6.125.011719.710938.027344 1.421875.027344 2.125 0 77.195312-62.804688 140-140 140zm0-194.113281c-22.574219-21.222657-37.308594-48.9375-42.203125-79.410157 13.59375-4.296874 27.75-6.476562 42.203125-6.476562s28.609375 2.179688 42.203125 6.476562c-4.898437 30.476563-19.628906 58.1875-42.203125 79.410157zm61.175781-71.820313c40.589844 19.835938 69.738281 58.839844 77.007813 103.464844-13.585938 4.289062-27.738282 6.46875-42.183594 6.46875-28.820312 0-56.945312-8.945312-80.375-25.375 23.648438-22.964844 39.445312-52.304688 45.550781-84.558594zm-76.800781 84.558594c-23.429688 16.429688-51.554688 25.375-80.375 25.375-14.445312 0-28.597656-2.179688-42.183594-6.46875 7.273438-44.632812 36.421875-83.632812 77.007813-103.464844 6.105469 32.253906 21.902343 61.59375 45.550781 84.558594zm111.625-254.625c77.195312 0 140 62.804688 140 140 0 53.605469-31.226562 102.726562-78.84375 125.945312-9.984375-52.445312-45.425781-95.855468-93.429688-116.726562.175782-3.085938.273438-6.167969.273438-9.21875 0-43.457031-17.496094-84.570312-48.382812-114.617188 23.429687-16.433593 51.558593-25.382812 80.382812-25.382812zm-96 38.117188c28.0625 26.421874 44 63.085937 44 101.882812 0 .703125-.015625 1.414062-.027344 2.125-14.230468-4.0625-28.96875-6.125-43.972656-6.125s-29.742188 2.0625-43.972656 6.125c-.011719-.710938-.027344-1.421875-.027344-2.125 0-38.792969 15.9375-75.457031 44-101.882812zm-96-38.117188c28.824219 0 56.953125 8.945312 80.382812 25.382812-30.886718 30.046876-48.382812 71.160157-48.382812 114.617188 0 3.050781.097656 6.132812.273438 9.21875-48 20.867188-83.445313 64.273438-93.429688 116.726562-47.617188-23.21875-78.84375-72.339843-78.84375-125.945312 0-77.195312 62.804688-140 140-140zm0 0"/><path d="m118.367188 69.085938c5.019531-2.308594 7.214843-8.246094 4.90625-13.265626-2.304688-5.015624-8.246094-7.210937-13.261719-4.90625-35.527344 16.34375-60.957031 48.96875-68.027344 87.273438-1 5.429688 2.589844 10.644531 8.023437 11.648438 5.425782 1 10.644532-2.589844 11.644532-8.023438 5.890625-31.910156 27.089844-59.097656 56.714844-72.726562zm0 0"/></svg>