<?xml version="1.0" standalone="no"?><!DOCTYPE svg PUBLIC "-//W3C//DTD SVG 1.1//EN" "http://www.w3.org/Graphics/SVG/1.1/DTD/svg11.dtd"><svg t="1617870601279" class="icon" viewBox="0 0 1024 1024" version="1.1" xmlns="http://www.w3.org/2000/svg" p-id="2497" xmlns:xlink="http://www.w3.org/1999/xlink" width="200" height="200"><defs><style type="text/css"></style></defs><path d="M908.202667 174.933333H115.797333A30.506667 30.506667 0 0 0 85.333333 205.568v612.864c0 16.938667 13.653333 30.634667 30.464 30.634667h792.405334c16.853333 0 30.464-13.653333 30.464-30.634667V205.568a30.506667 30.506667 0 0 0-30.464-30.634667z m-38.101334 605.184H153.898667v-38.186666L285.866667 584.533333l142.933333 170.453334 222.378667-265.045334 218.965333 261.034667v29.098667z m0-124.288l-213.162666-254.122666a7.552 7.552 0 0 0-11.605334 0l-216.576 258.133333-137.130666-163.413333a7.552 7.552 0 0 0-11.605334 0l-126.122666 150.314666V243.882667h716.202666v411.946666z" p-id="2498"></path><path d="M313.898667 458.368a84.053333 84.053333 0 0 0 83.797333-84.266667 84.053333 84.053333 0 0 0-83.797333-84.266666 84.053333 84.053333 0 0 0-83.797334 84.266666c0 46.549333 37.546667 84.266667 83.797334 84.266667z m0-111.061333c14.762667 0 26.666667 11.946667 26.666666 26.794666a26.709333 26.709333 0 1 1-53.333333 0c0-14.848 11.946667-26.794667 26.666667-26.794666z" p-id="2499"></path></svg>