<svg viewBox="-66 0 512 512.00045" xmlns="http://www.w3.org/2000/svg"><path d="m189.992188 99.996094c5.519531 0 10-4.480469 10-10 0-5.519532-4.480469-10-10-10-5.519532 0-10 4.480468-10 10 0 5.519531 4.480468 10 10 10zm0 0"/><path d="m173.351562 506.9375c5.054688 3.375 10.847657 5.0625 16.644532 5.0625 5.789062 0 11.582031-1.6875 16.632812-5.058594l88.757813-59.167968c52.972656-35.316407 84.597656-94.414063 84.597656-158.085938v-239.6875c0-4.6875-3.253906-8.746094-7.828125-9.761719l-179.996094-40c-1.425781-.316406-2.910156-.316406-4.335937 0l-179.996094 40c-4.574219 1.015625-7.828125 5.074219-7.828125 9.761719v239.6875c0 63.671875 31.625 122.769531 84.601562 158.085938zm-153.351562-217.246094v-231.671875l169.992188-37.773437 169.992187 37.773437v231.671875c0 56.96875-28.296875 109.84375-75.691406 141.441406l-88.765625 59.171876c-3.363282 2.246093-7.707032 2.246093-11.078125-.003907l-88.757813-59.167969c-47.394531-31.597656-75.691406-84.472656-75.691406-141.441406zm0 0"/><path d="m184.445312 466.253906c1.679688 1.121094 3.613282 1.679688 5.546876 1.679688 1.933593 0 3.867187-.558594 5.546874-1.679688l77.65625-51.757812c41.824219-27.863282 66.792969-74.515625 66.792969-124.796875v-207.613281c0-4.683594-3.257812-8.742188-7.832031-9.761719l-139.996094-31.105469c-1.425781-.320312-2.90625-.320312-4.335937 0l-139.996094 31.105469c-4.574219 1.019531-7.828125 5.078125-7.828125 9.761719v207.613281c0 50.277343 24.96875 96.933593 66.792969 124.796875zm-124.449218-176.554687v-199.589844l129.996094-28.886719 129.996093 28.886719v199.589844c0 43.574219-21.640625 84.007812-57.882812 108.15625l-72.113281 48.058593-72.109376-48.058593s-.003906 0-.003906-.003907c-36.242187-24.144531-57.882812-64.578124-57.882812-108.152343zm0 0"/><path d="m226.410156 110.289062c64.53125 14.253907 61.558594 13.886719 63.585938 13.886719 4.585937 0 8.71875-3.171875 9.753906-7.828125 1.199219-5.394531-2.203125-10.734375-7.59375-11.933594l-61.40625-13.648437c-5.394531-1.195313-10.730469 2.203125-11.929688 7.59375-1.199218 5.390625 2.199219 10.730469 7.589844 11.929687zm0 0"/><path d="m129.996094 345.988281h119.996094c5.519531 0 9.996093-4.480469 9.996093-10v-119.996093c0-5.523438-4.476562-10-9.996093-10h-10v-10c0-27.621094-22.375-49.996094-50-49.996094-27.566407 0-49.996094 22.429687-49.996094 49.996094v10h-10c-5.523438 0-10 4.476562-10 10v119.996093c0 5.523438 4.476562 10 10 10zm29.996094-149.996093c0-16.539063 13.460937-30 30-30 16.566406 0 30 13.429687 30 30v10h-60zm-19.996094 30h99.996094v99.996093h-99.996094zm0 0"/><path d="m189.992188 245.992188c-5.523438 0-10 4.476562-10 10v39.996093c0 5.523438 4.476562 10 10 10 5.523437 0 10-4.476562 10-10v-39.996093c0-5.523438-4.476563-10-10-10zm0 0"/></svg>