<svg viewBox="0 0 512 512" xmlns="http://www.w3.org/2000/svg"><path d="m363.25 120c5.519531 0 10-4.480469 10-10s-4.480469-10-10-10-10 4.480469-10 10 4.480469 10 10 10zm0 0"/><path d="m256 0c-138.652344 0-256 118.515625-256 256 0 138.304688 118.222656 256 256 256 31.464844 0 62.46875-6.066406 92.148438-18.035156.035156-.015625.066406-.027344.101562-.042969.039062-.015625.078125-.03125.117188-.046875 94.28125-38.113281 163.632812-131.976562 163.632812-237.875 0-138.480469-118.25-256-256-256zm0 20c33.582031 0 66.265625 7.4375 97.25 22.097656v27.902344c0 5.523438 4.476562 10 10 10s10-4.476562 10-10c0-4.441406 0-13.027344 0-17.257812 44.445312 26.441406 80.34375 67.25 100.453125 114.488281l-100.453125 107.058593c0-17.742187 0-108.578124 0-124.289062 0-5.523438-4.476562-10-10-10s-10 4.476562-10 10v35.488281l-165.070312-154.957031c22.097656-6.992188 44.84375-10.53125 67.820312-10.53125zm97.25 192.917969v82.683593l-52.917969 56.398438h-82.695312l-56.386719-52.921875v-82.71875l52.917969-56.359375h82.710937zm-186.023438-174.621094 108.34375 101.703125h-223.574218c26.417968-45.027344 67.503906-81.382812 115.230468-101.703125zm-25.976562 422.429687c-45.023438-26.0625-81.558594-66.777343-102.203125-114.207031l102.203125-108.855469zm-110.105469-135.007812c-7.398437-22.683594-11.144531-46.066406-11.144531-69.71875 0-33.136719 7.234375-65.398438 21.503906-96h145.230469zm224.855469 166.28125c-32.65625 0-64.5-7.039062-94.75-20.929688v-144.5625l164.464844 154.351563c-22.679688 7.394531-46.0625 11.140625-69.714844 11.140625zm90.519531-19.046875-107.570312-100.964844h221.050781c-26.082031 44.4375-66.527344 80.523438-113.480469 100.964844zm123.972657-120.953125h-142.734376c1.707032-1.824219 147.871094-157.5625 153.714844-163.816406 6.992188 22.082031 10.527344 44.828125 10.527344 67.816406 0 33.132812-7.238281 65.394531-21.507812 96zm0 0"/></svg>