<svg viewBox="0 0 512 512.0003" xmlns="http://www.w3.org/2000/svg"><path d="m90 252c5.519531 0 10-4.480469 10-10 0-5.605469-4.574219-10-10-10-5.519531 0-10 4.480469-10 10 0 5.546875 4.519531 10 10 10zm0 0"/><path d="m190 512c104.765625 0 190-85.234375 190-190 0-39.980469-12.773438-79.207031-36.121094-111.449219 4.929688-4.933593 28.0625-28.058593 28.230469-28.230469 6.898437-6.898437 9.710937-16.355468 8.453125-25.351562 17.5-.027344 45.484375-.054688 60.8125.03125h.054688c2.652343 0 5.195312-1.050781 7.070312-2.925781 2.210938-2.214844 58.53125-57.964844 60.570312-60 2.859376-2.863281 3.714844-7.164063 2.167969-10.898438-1.546875-3.738281-5.191406-6.175781-9.238281-6.175781h-52.855469l22.925781-22.929688c3.90625-3.902343 3.90625-10.234374 0-14.140624-3.902343-3.90625-10.234374-3.90625-14.140624 0l-22.929688 22.925781v-52.855469c0-4.042969-2.4375-7.691406-6.175781-9.238281s-8.039063-.6914065-10.898438 2.167969c-13.667969 13.683593-57.046875 57.621093-59.996093 60.570312-1.890626 1.886719-2.945313 4.453125-2.929688 7.125.085938 15.316406.058594 43.28125.03125 60.78125-9.148438-1.28125-18.472656 1.605469-25.320312 8.453125l-28.261719 28.257813c-32.242188-23.34375-71.46875-36.117188-111.449219-36.117188-104.765625 0-190 85.234375-190 190s85.234375 190 190 190zm239.144531-415.007812h48.554688c-15.515625 15.363281-34.804688 34.582031-40.367188 40.097656-13.8125-.050782-34.328125-.039063-48.144531-.023438zm-14.144531-62.730469v48.59375l-40.085938 39.957031c.015626-15.414062.027344-34.898438-.027343-48.144531 8.472656-8.554688 23.738281-23.878907 40.113281-40.40625zm-71.148438 119.738281c3.941407-3.9375 10.210938-3.789062 14.074219.070312.003907 0 .003907 0 .003907.003907 3.898437 3.902343 3.917968 10.226562.039062 14.105469-.136719.140624-162.824219 162.816406-162.882812 162.875-3.855469 3.859374-10.167969 3.964843-14.140626-.007813-3.890624-3.886719-3.929687-10.203125.003907-14.132813 2.96875-2.96875 159.359375-159.367187 162.902343-162.914062zm-177.046874 191.1875c11.742187 11.753906 30.738281 11.707031 42.394531.039062 18.257812-18.257812 36.382812-36.382812 46.632812-46.628906 8.949219 25.089844 2.945313 53.613282-16.441406 73-13.199219 13.199219-30.773437 20.464844-49.496094 20.464844-18.71875 0-36.296875-7.265625-49.492187-20.464844-27.308594-27.304687-27.308594-71.679687 0-98.988281 19.386718-19.382813 47.910156-25.390625 73-16.4375-26.726563 26.730469-46.589844 46.59375-46.589844 46.59375-11.75 11.734375-11.726562 30.71875-.007812 42.421875zm23.195312-193.1875c35.25 0 68.597656 10.492188 97.125 30.449219-7.078125 7.082031-14.386719 14.390625-21.742188 21.75-20.976562-13.496094-45.171874-21.058594-70.519531-21.933594-29.105469-1-57.496093 6.964844-82.105469 23.042969-4.621093 3.023437-5.921874 9.21875-2.898437 13.839844 3.019531 4.625 9.214844 5.925781 13.839844 2.902343 38.675781-25.269531 88.367187-26.195312 127.140625-3.320312-7.53125 7.535156-14.976563 14.984375-22.152344 22.152343-34.144531-16.320312-75.265625-9.578124-102.429688 17.585938-35.121093 35.121094-35.125 92.148438 0 127.273438 16.976563 16.972656 39.574219 26.320312 63.636719 26.320312s46.664063-9.347656 63.636719-26.320312c27.164062-27.164063 33.910156-68.285157 17.585938-102.429688 7.183593-7.1875 14.644531-14.652344 22.191406-22.195312 27.457031 46.15625 20.332031 106.960937-18.546875 145.839843-23.398438 23.390625-54.121094 35.085938-84.855469 35.082031-30.730469 0-61.46875-11.695312-84.863281-35.082031-34.515625-34.515625-43.476563-84.300781-27.464844-127.074219.027344-.070312.054687-.144531.078125-.214843.039062-.113281.074219-.21875.121094-.332031 2.007812-5.144532-.53125-10.941407-5.675782-12.953126-5.148437-2.007812-10.945312.53125-12.953124 5.675782-.121094.3125-.230469.609375-.339844.914062-18.796875 50.332032-7.828125 108.207032 32.089844 148.128906 27.296874 27.289063 63.152343 40.929688 99.003906 40.929688 35.855468 0 71.707031-13.644531 99-40.929688 46.566406-46.566406 54.058594-120.128906 18.929687-174.503906 7.351563-7.355468 14.652344-14.660156 21.71875-21.722656 77.277344 110.46875-.914062 267.125-139.550781 267.125-93.738281 0-170-76.261719-170-170s76.261719-170 170-170zm0 0"/></svg>