<?xml version="1.0" standalone="no"?><!DOCTYPE svg PUBLIC "-//W3C//DTD SVG 1.1//EN" "http://www.w3.org/Graphics/SVG/1.1/DTD/svg11.dtd"><svg t="1617870588193" class="icon" viewBox="0 0 1024 1024" version="1.1" xmlns="http://www.w3.org/2000/svg" p-id="2363" xmlns:xlink="http://www.w3.org/1999/xlink" width="200" height="200"><defs><style type="text/css"></style></defs><path d="M885.546667 781.738667a400.768 400.768 0 0 0-86.912-128.128 405.12 405.12 0 0 0-128.853334-86.4l-1.28-0.554667a264.832 264.832 0 0 0 110.848-215.466667C779.349333 204.373333 659.626667 85.333333 512 85.333333S244.650667 204.330667 244.650667 351.189333a265.173333 265.173333 0 0 0 110.805333 215.594667l-1.28 0.512a401.621333 401.621333 0 0 0-128.853333 86.442667 402.56 402.56 0 0 0-86.869334 128.085333 396.629333 396.629333 0 0 0-31.786666 148.053333 8.618667 8.618667 0 0 0 8.618666 8.789334h64.682667c4.736 0 8.533333-3.754667 8.618667-8.362667a318.72 318.72 0 0 1 94.677333-219.008A322.133333 322.133333 0 0 1 512 617.045333a322.133333 322.133333 0 0 1 228.736 94.250667 318.72 318.72 0 0 1 94.677333 219.008 8.533333 8.533333 0 0 0 8.618667 8.362667h64.682667a8.618667 8.618667 0 0 0 8.618666-8.789334 397.482667 397.482667 0 0 0-31.786666-148.138666zM512 535.552a184.746667 184.746667 0 0 1-131.072-54.016 182.698667 182.698667 0 0 1-54.357333-130.346667c0-49.194667 19.328-95.530667 54.357333-130.346666A184.746667 184.746667 0 0 1 512 166.826667c49.493333 0 96.042667 19.2 131.072 54.016a182.656 182.656 0 0 1 54.357333 130.346666 182.656 182.656 0 0 1-54.357333 130.346667A184.746667 184.746667 0 0 1 512 535.594667z" p-id="2364"></path></svg>