<?xml version="1.0" standalone="no"?><!DOCTYPE svg PUBLIC "-//W3C//DTD SVG 1.1//EN" "http://www.w3.org/Graphics/SVG/1.1/DTD/svg11.dtd"><svg t="1617881382556" class="icon" viewBox="0 0 1024 1024" version="1.1" xmlns="http://www.w3.org/2000/svg" p-id="1088" xmlns:xlink="http://www.w3.org/1999/xlink" width="200" height="200"><defs><style type="text/css"></style></defs><path d="M511.774226 0.169331C229.951273 0.169331 0.507993 229.556168 0.507993 511.37912c0 281.766509 229.443281 511.209789 511.209789 511.20979 281.766509 0 511.209789-229.443281 511.209789-511.20979C1022.984015 229.556168 793.540734 0.169331 511.774226 0.169331zM249.932312 860.482857c0-144.664976 117.176937-261.841914 261.841914-261.841913 144.608533 0 261.841914 117.176937 261.841913 261.841913-72.304266 54.86319-164.589571 87.261823-261.841913 87.261824-97.252343 0.056444-189.537647-32.398633-261.841914-87.261824z m149.57557-448.839598c0-62.370191 49.896153-112.2099 112.2099-112.2099s112.2099 49.896153 112.2099 112.2099-49.896153 112.2099-112.2099 112.209899-112.2099-49.896153-112.2099-112.209899z m441.389042 384.042332a337.673906 337.673906 0 0 0-204.495204-246.884356c37.422114-34.882152 59.830228-82.294786 59.830228-137.157976 0-102.21938-84.778304-187.054129-187.054129-187.054129-102.21938 0-187.054129 84.778304-187.054128 187.054129 0 54.86319 22.464557 102.21938 59.830228 137.157976a337.673906 337.673906 0 0 0-204.495204 246.884356c-64.85371-77.327748-107.242862-174.58009-107.242862-284.306471 0-239.377356 196.988204-436.422004 436.422004-436.422004s441.389042 196.988204 441.389042 436.422004c0.112887 109.726381-39.792746 206.978723-107.129975 284.306471z m0 0" p-id="1089"></path></svg>